<?xml version="1.0" standalone="no"?><!DOCTYPE svg PUBLIC "-//W3C//DTD SVG 1.1//EN" "http://www.w3.org/Graphics/SVG/1.1/DTD/svg11.dtd"><svg t="1683969649556" class="icon" viewBox="0 0 1024 1024" version="1.1" xmlns="http://www.w3.org/2000/svg" p-id="2545" xmlns:xlink="http://www.w3.org/1999/xlink" width="200" height="200"><path d="M658.498 89.34c-4.376-4.688-10.28-7.282-16.592-7.282-1.282 0-2.562 0.124-3.812 0.344-74.404 12.844-176.9 85.902-181.212 89.028a21.268 21.268 0 0 0-8.624 20.75c1.312 8 7.032 14.562 14.75 16.968l174.212 53.686a21.74 21.74 0 0 0 6.282 0.938c4.282 0 8.53-1.282 12.124-3.782a21.212 21.212 0 0 0 9.186-16.188c0-0.344 2.062-33.092 3-66.528 1.996-70.654-2.19-80.372-9.314-87.934z" fill="#E9573F" p-id="2546"></path><path d="M1017.108 650.08l-174.146-160.694-3.532-46.28a21.36 21.36 0 0 0-3.844-10.624l-130.308-185.306a21.076 21.076 0 0 0-8.562-7.124c-5.156-2.376-128.026-57.966-280.424-57.966-78.436 0-150.712 14.906-214.774 44.342-78.84 36.218-145.4 94.558-197.928 173.368a21.312 21.312 0 0 0-1.562 20.842l255.99 548.68c3.532 7.562 301.048-226.146 416.262-226.552 23.062 1.188 171.308 8.874 197.838 12.06 3.594 0.406 7.438 0.624 11.436 0.624 34.094 0 75.53-15.624 92.34-26.904 17.594-11.812 40.092-44.438 44.436-50.874a21.292 21.292 0 0 0-3.222-27.592z" fill="#FC6E51" p-id="2547"></path><path d="M746.65 444.732c0 11.78-9.532 21.342-21.31 21.342-11.782 0-21.344-9.562-21.344-21.342s9.562-21.312 21.344-21.312c11.78 0 21.31 9.532 21.31 21.312zM1020.326 677.674a21.29 21.29 0 0 0-3.218-27.594l-19.124-17.652s-34.402 35.434-33.622 43.434c0.782 7.998 35.434 29.28 35.434 29.28 9.842-11.876 18.092-23.844 20.53-27.468z" fill="#434A54" p-id="2548"></path><path d="M432.008 784.388c-71.124 70.248-223.96 77.81-223.96 77.81l49.966 107.12a21.354 21.354 0 0 0 19.312 12.31c0.812 0 1.624-0.062 2.468-0.156 160.9-18.56 217.084-86.182 266.674-145.868 34.562-41.624 64.468-77.624 127.806-92.84 0.004 0.002-150.926-48.624-242.266 41.624z" fill="#E6E9ED" p-id="2549"></path><path d="M385.48 182.866h-0.062c-23.344 1.188-46.124 3.782-68.216 7.718-0.032 0-0.062 0-0.094 0.032l25.186 62.31 43.186-70.06zM540.876 95.184c-73.37 37.998-28.966 262.238-28.966 262.238l42.748-40.686s59.562-259.552-13.782-221.552z" fill="#E9573F" p-id="2550"></path><path d="M362.604 259.458l123.808 57.278c0-154.65 54.464-253.022 54.464-253.022s-135.522 62.498-178.272 195.744z" fill="#FC6E51" p-id="2551"></path><path d="M576.002 338.08c-11.782 0-21.344-9.562-21.344-21.342 0-77.59-9.188-140.306-16.938-179.21-3.438-17.312-6.874-31.592-9.78-42.436a397.336 397.336 0 0 0-47.56 33.78c-33.218 27.5-77.122 73.654-97.464 137.088-3.594 11.218-15.594 17.406-26.812 13.812-11.218-3.624-17.406-15.624-13.812-26.842 18.718-58.374 57.436-112.932 111.902-157.774 40.874-33.656 76.248-50.124 77.748-50.81a21.242 21.242 0 0 1 17.186-0.282 21.21 21.21 0 0 1 11.812 12.468c0.406 1.062 9.438 26.592 18.406 71.528 8.218 41.03 18 107.058 18 188.68 0 11.778-9.562 21.34-21.344 21.34z" fill="#FC6E51" p-id="2552"></path><path d="M549.158 44.06c-10.876-4.594-23.374 0.5-27.966 11.374-3.062 7.312-75.12 180.398-51.498 307.862 1.906 10.282 10.874 17.438 20.936 17.438 1.312 0 2.624-0.094 3.938-0.344 11.562-2.156 19.218-13.282 17.062-24.876-21.28-114.838 48.184-281.864 48.904-283.52 4.562-10.84-0.532-23.372-11.376-27.934z" fill="#FC6E51" p-id="2553"></path></svg>